<svg width="0" height="0" class="hidden">
  <symbol xmlns="http://www.w3.org/2000/svg" viewBox="0 0 48 48" id="facebook">
    <linearGradient id="a" x1="9.993" x2="40.615" y1="9.993" y2="40.615" gradientUnits="userSpaceOnUse">
      <stop offset="0" stop-color="#2aa4f4"></stop>
      <stop offset="1" stop-color="#007ad9"></stop>
    </linearGradient>
    <path fill="url(#a)" d="M24 4C12.954 4 4 12.954 4 24s8.954 20 20 20 20-8.954 20-20S35.046 4 24 4z"></path>
    <path fill="#fff" d="M26.707 29.301h5.176l.813-5.258h-5.989v-2.874c0-2.184.714-4.121 2.757-4.121h3.283V12.46c-.577-.078-1.797-.248-4.102-.248-4.814 0-7.636 2.542-7.636 8.334v3.498H16.06v5.258h4.948v14.452c.98.146 1.973.246 2.992.246.921 0 1.82-.084 2.707-.204V29.301z"></path>
  </symbol>
  <symbol xmlns="http://www.w3.org/2000/svg" viewBox="0 0 48 48" id="google">
    <path fill="#fbc02d" d="M43.611 20.083H42V20H24v8h11.303c-1.649 4.657-6.08 8-11.303 8-6.627 0-12-5.373-12-12s5.373-12 12-12c3.059 0 5.842 1.154 7.961 3.039l5.657-5.657C34.046 6.053 29.268 4 24 4 12.955 4 4 12.955 4 24s8.955 20 20 20 20-8.955 20-20c0-1.341-.138-2.65-.389-3.917z"></path>
    <path fill="#e53935" d="M6.306 14.691l6.571 4.819C14.655 15.108 18.961 12 24 12c3.059 0 5.842 1.154 7.961 3.039l5.657-5.657C34.046 6.053 29.268 4 24 4 16.318 4 9.656 8.337 6.306 14.691z"></path>
    <path fill="#4caf50" d="M24 44c5.166 0 9.86-1.977 13.409-5.192l-6.19-5.238A11.91 11.91 0 0124 36c-5.202 0-9.619-3.317-11.283-7.946l-6.522 5.025C9.505 39.556 16.227 44 24 44z"></path>
    <path fill="#1565c0" d="M43.611 20.083L43.595 20H24v8h11.303a12.04 12.04 0 01-4.087 5.571l.003-.002 6.19 5.238C36.971 39.205 44 34 44 24c0-1.341-.138-2.65-.389-3.917z"></path>
  </symbol>
</svg>